<?xml version="1.0" encoding="UTF-8" standalone="no"?>
<!-- Created with Inkscape (http://www.inkscape.org/) -->

<svg
   width="256mm"
   height="256mm"
   viewBox="0 0 256 256"
   version="1.1"
   id="svg1"
   sodipodi:docname="bitmap.svg"
   inkscape:version="1.4.2 (ebf0e940d0, 2025-05-08)"
   xmlns:inkscape="http://www.inkscape.org/namespaces/inkscape"
   xmlns:sodipodi="http://sodipodi.sourceforge.net/DTD/sodipodi-0.dtd"
   xmlns="http://www.w3.org/2000/svg"
   xmlns:svg="http://www.w3.org/2000/svg">
  <sodipodi:namedview
     id="namedview1"
     pagecolor="#505050"
     bordercolor="#eeeeee"
     borderopacity="1"
     inkscape:showpageshadow="0"
     inkscape:pageopacity="0"
     inkscape:pagecheckerboard="0"
     inkscape:deskcolor="#505050"
     inkscape:document-units="mm"
     inkscape:zoom="0.70383301"
     inkscape:cx="486.62111"
     inkscape:cy="482.35874"
     inkscape:window-width="1440"
     inkscape:window-height="932"
     inkscape:window-x="0"
     inkscape:window-y="0"
     inkscape:window-maximized="1"
     inkscape:current-layer="layer1" />
  <defs
     id="defs1">
    <rect
       x="103.84543"
       y="262.08609"
       width="685.70953"
       height="230.76762"
       id="rect3" />
  </defs>
  <g
     id="layer1">
    <rect
       style="fill:#6c6d89;fill-opacity:1;stroke:#000000;stroke-width:1.42403;stroke-opacity:0"
       id="rect1"
       width="254.57597"
       height="254.57597"
       x="0.71201718"
       y="0.71201718" />
    <path
       d="m 110.26758,264.24219 v 1.15429 q -0.67383,-0.32226 -1.27149,-0.48046 -0.59765,-0.15821 -1.15429,-0.15821 -0.9668,0 -1.49414,0.375 -0.52149,0.375 -0.52149,1.06641 0,0.58008 0.34571,0.8789 0.35156,0.29297 1.32421,0.47461 l 0.71485,0.14649 q 1.32422,0.25195 1.95117,0.89062 0.63281,0.63282 0.63281,1.69922 0,1.27149 -0.85547,1.92774 -0.84961,0.65625 -2.49609,0.65625 -0.62109,0 -1.32422,-0.14063 -0.69726,-0.14062 -1.44726,-0.41601 v -1.21875 q 0.7207,0.40429 1.4121,0.60937 0.69141,0.20508 1.35938,0.20508 1.01367,0 1.56445,-0.39844 0.55078,-0.39844 0.55078,-1.13672 0,-0.64453 -0.39843,-1.00781 -0.39258,-0.36328 -1.29493,-0.54492 l -0.7207,-0.14063 q -1.32422,-0.26367 -1.91601,-0.82617 -0.5918,-0.5625 -0.5918,-1.56445 0,-1.16016 0.81445,-1.82813 0.82031,-0.66797 2.25586,-0.66797 0.61524,0 1.25391,0.11133 0.63867,0.11133 1.30664,0.33399 z m 4.6289,8.46093 -3.33984,-8.74804 h 1.23633 l 2.77148,7.36523 2.77735,-7.36523 h 1.23047 l -3.33399,8.74804 z m 11.91797,-1.24804 v -2.34961 h -1.93359 v -0.97266 h 3.10547 v 3.75586 q -0.68555,0.48633 -1.51172,0.73828 -0.82617,0.2461 -1.76367,0.2461 -2.05078,0 -3.21094,-1.19532 -1.1543,-1.20117 -1.1543,-3.33984 0,-2.14453 1.1543,-3.33984 1.16016,-1.20118 3.21094,-1.20118 0.85547,0 1.62304,0.21094 0.77344,0.21094 1.42383,0.6211 v 1.25976 q -0.65625,-0.55664 -1.39453,-0.83789 -0.73828,-0.28125 -1.55273,-0.28125 -1.60547,0 -2.41407,0.89649 -0.80273,0.89648 -0.80273,2.67187 0,1.76953 0.80273,2.66602 0.8086,0.89648 2.41407,0.89648 0.62695,0 1.11914,-0.10547 0.49219,-0.11133 0.88476,-0.33984 z"
       id="text2"
       style="white-space:pre;fill:#ffffff;stroke:#000000;stroke-width:5.41228;stroke-opacity:0"
       transform="matrix(8.6704588,0,0,8.1375848,-880.47427,-2055.5985)"
       aria-label="SVG" />
  </g>
</svg>
